{
    "asset" : {
        "generator" : "Khronos glTF Blender I/O v3.4.50",
        "version" : "2.0"
    },
    "scene" : 0,
    "scenes" : [
        {
            "name" : "Scene",
            "nodes" : [
                0,
                1,
                2
            ]
        }
    ],
    "nodes" : [
        {
            "mesh" : 0,
            "name" : "lod0"
        },
        {
            "mesh" : 1,
            "name" : "lod1"
        },
        {
            "mesh" : 2,
            "name" : "lod2"
        }
    ],
    "materials" : [
        {
            "name" : "blinn3-fx",
            "pbrMetallicRoughness" : {
                "baseColorTexture" : {
                    "index" : 0
                },
                "metallicFactor" : 0
            }
        }
    ],
    "meshes" : [
        {
            "name" : "LOD3spShape",
            "primitives" : [
                {
                    "attributes" : {
                        "POSITION" : 0,
                        "TEXCOORD_0" : 1,
                        "NORMAL" : 2
                    },
                    "indices" : 3,
                    "material" : 0
                }
            ]
        },
        {
            "name" : "LOD3spShape.001",
            "primitives" : [
                {
                    "attributes" : {
                        "POSITION" : 4,
                        "TEXCOORD_0" : 5,
                        "NORMAL" : 6
                    },
                    "indices" : 7,
                    "material" : 0
                }
            ]
        },
        {
            "name" : "LOD3spShape.002",
            "primitives" : [
                {
                    "attributes" : {
                        "POSITION" : 8,
                        "TEXCOORD_0" : 9,
                        "NORMAL" : 10
                    },
                    "indices" : 11,
                    "material" : 0
                }
            ]
        }
    ],
    "textures" : [
        {
            "sampler" : 0,
            "source" : 0
        }
    ],
    "images" : [
        {
            "bufferView" : 4,
            "mimeType" : "image/png",
            "name" : "Image_0"
        }
    ],
    "accessors" : [
        {
            "bufferView" : 0,
            "componentType" : 5126,
            "count" : 2399,
            "max" : [
                0.20769032835960388,
                0.354076623916626,
                0.11644600331783295
            ],
            "min" : [
                -0.14964278042316437,
                0.021441468968987465,
                -0.1324320286512375
            ],
            "type" : "VEC3"
        },
        {
            "bufferView" : 1,
            "componentType" : 5126,
            "count" : 2399,
            "type" : "VEC2"
        },
        {
            "bufferView" : 2,
            "componentType" : 5126,
            "count" : 2399,
            "type" : "VEC3"
        },
        {
            "bufferView" : 3,
            "componentType" : 5123,
            "count" : 12636,
            "type" : "SCALAR"
        },
        {
            "bufferView" : 5,
            "componentType" : 5126,
            "count" : 744,
            "max" : [
                0.2083965241909027,
                0.35435202717781067,
                0.11696918308734894
            ],
            "min" : [
                -0.15066379308700562,
                0.021725362166762352,
                -0.1328907161951065
            ],
            "type" : "VEC3"
        },
        {
            "bufferView" : 6,
            "componentType" : 5126,
            "count" : 744,
            "type" : "VEC2"
        },
        {
            "bufferView" : 7,
            "componentType" : 5126,
            "count" : 744,
            "type" : "VEC3"
        },
        {
            "bufferView" : 8,
            "componentType" : 5123,
            "count" : 3159,
            "type" : "SCALAR"
        },
        {
            "bufferView" : 9,
            "componentType" : 5126,
            "count" : 106,
            "max" : [
                0.20513653755187988,
                0.3524124026298523,
                0.11273584514856339
            ],
            "min" : [
                -0.15623413026332855,
                0.022580312564969063,
                -0.12473966926336288
            ],
            "type" : "VEC3"
        },
        {
            "bufferView" : 10,
            "componentType" : 5126,
            "count" : 106,
            "type" : "VEC2"
        },
        {
            "bufferView" : 11,
            "componentType" : 5126,
            "count" : 106,
            "type" : "VEC3"
        },
        {
            "bufferView" : 12,
            "componentType" : 5123,
            "count" : 312,
            "type" : "SCALAR"
        }
    ],
    "bufferViews" : [
        {
            "buffer" : 0,
            "byteLength" : 28788,
            "byteOffset" : 0,
            "target" : 34962
        },
        {
            "buffer" : 0,
            "byteLength" : 19192,
            "byteOffset" : 28788,
            "target" : 34962
        },
        {
            "buffer" : 0,
            "byteLength" : 28788,
            "byteOffset" : 47980,
            "target" : 34962
        },
        {
            "buffer" : 0,
            "byteLength" : 25272,
            "byteOffset" : 76768,
            "target" : 34963
        },
        {
            "buffer" : 0,
            "byteLength" : 16302,
            "byteOffset" : 102040
        },
        {
            "buffer" : 0,
            "byteLength" : 8928,
            "byteOffset" : 118344,
            "target" : 34962
        },
        {
            "buffer" : 0,
            "byteLength" : 5952,
            "byteOffset" : 127272,
            "target" : 34962
        },
        {
            "buffer" : 0,
            "byteLength" : 8928,
            "byteOffset" : 133224,
            "target" : 34962
        },
        {
            "buffer" : 0,
            "byteLength" : 6318,
            "byteOffset" : 142152,
            "target" : 34963
        },
        {
            "buffer" : 0,
            "byteLength" : 1272,
            "byteOffset" : 148472,
            "target" : 34962
        },
        {
            "buffer" : 0,
            "byteLength" : 848,
            "byteOffset" : 149744,
            "target" : 34962
        },
        {
            "buffer" : 0,
            "byteLength" : 1272,
            "byteOffset" : 150592,
            "target" : 34962
        },
        {
            "buffer" : 0,
            "byteLength" : 624,
            "byteOffset" : 151864,
            "target" : 34963
        }
    ],
    "samplers" : [
        {
            "magFilter" : 9729,
            "minFilter" : 9987
        }
    ],
    "buffers" : [
        {
            "byteLength" : 152488,
            "uri" : "data:application/octet-stream;base64,"
        }
    ]
}
